<svg xmlns="http://www.w3.org/2000/svg" width="64" height="64" viewBox="0 0 16.933 16.933">
  <defs>
    <radialGradient id="fc-gear" cx="282.65" cy="29.149" r="19.571" gradientTransform="matrix(0.61866,0.96665,-1.0332,0.66128,-327.28,-255.84)" href="#F">
      <stop stop-color="#71b2f8" offset="0"/>
      <stop stop-color="#002795" offset="1"/>
    </radialGradient>
    <radialGradient id="fc-F" cx="270.58" cy="33.9" r="19.571" gradientTransform="matrix(1.1149,0.27223,-0.75072,3.0746,-471.09,-148.33)" href="#F">
      <stop stop-color="#ff6d0f" offset="0"/>
      <stop stop-color="#ff1000" offset="1"/>
    </radialGradient>
    <linearGradient id="whoosh" x1="8.893" x2="14.079" y1="8.424" y2="8.424" href="#F">
      <stop stop-color="#666" stop-opacity=".847" offset="0"/>
      <stop stop-color="#666" stop-opacity=".25" offset=".518"/>
      <stop stop-color="#666" stop-opacity=".025" offset=".776"/>
      <stop stop-color="#666" stop-opacity="0" offset="1"/>
    </linearGradient>
    <linearGradient id="wave-r" x1="12.879" y1="190" x2="127.988" y2="78.355" href="#F">
      <stop offset="0" stop-color="#983176"/>
      <stop offset="1" stop-color="#2b6ab0"/>
    </linearGradient>
    <linearGradient id="wave-l" x1="-20.225" y1="109.904" x2="53.219" y2="155.825" href="#F">
      <stop offset="0" stop-color="#de2230"/>
      <stop offset="1" stop-color="#2b6ab0"/>
    </linearGradient>
    <linearGradient id="F" gradientUnits="userSpaceOnUse"/>
  </defs>
  <g transform="matrix(.095819 0 0 .095819 30.934704 4.734053)" fill-rule="evenodd" stroke-width="3">
    <path fill="url(#fc-F)" stroke="#370700"
      d="M-216.14 7.27v55.5h12.375V41.05h8.75c-.316-2.697.634-6.66-.478-8.562-2.572-.345-6.507.674-8.272-.478v-8.764h21.555V7.3z"/>
    <path fill="url(#fc-gear)" stroke="#000137"
      d="M-161.05 23.812c-2.564 1.173-5.023 3.465-7.65 3.973-3.533-.092-3.6-3.787-4.817-6.287.228-3.373-5.645-3.146-6.09-.776-1.23 2.63-.448 6.933-3.955 7.663-2.604.752-5.268-2.02-7.895-2.638-1.97.352-5.243 3.716-2.372 5.794 1.472 2.536 3.715 5.003 1.58 7.863l-7.757 3.05c-.255 3.207.105 5.914 3.966 5.782 2.7.348 5.894 1.494 5.59 4.657-.484 2.525-3.78 5.654-2.445 7.79 1.988 3.315 4.45 2.174 7 .19 1.887-1.982 5.894-2.228 6.767.722 1.518 2.018 1 7.198 4.397 6.3 3.916 1.123 3.426-3.178 4.38-5.7-.09-2.927 3.603-4.905 5.898-2.98 2.603.81 5.72 4.013 7.344.262 2.9-2.032-1.457-4.835-2.04-7.237-1.84-2.445.632-5.636 3.43-5.81 3.13-.8 5.777-1.913 4.43-5.614-.694-2.427-5.244-1.74-7.434-2.957-2.787-1.506-1.87-4.892-.374-7.157 2.462-2.965.87-5.053-1.943-6.877zm-10.78 11.804c6.587 2.706 6.587 13.185-.047 15.816-6.23 3.35-14.136-3.25-12.16-9.992 1.242-5.278 7.32-8.136 12.207-5.824z"/>
  </g>
  <path d="M.477 12.677V4.113L8.911.375v16.104L.477 12.676z" fill="#202020" stroke="#000" stroke-width=".1"/>
  <path d="M4.906 2.156l-3.15 11.099 7.154 3.225V.376L4.906 2.157z" fill="#424242"/>
  <path d="M8.957.298l5.035 2.837.071 11.609-5.106 1.807L8.957.298z" fill="url(#whoosh)"/>
  <g transform="matrix(.061514 0 0 .061514 .1461 .044629)" fill-rule="evenodd" stroke="#222" stroke-width="2">
    <path fill="url(#wave-l)"
      d="M19.244 189.864s15.844-22.72 9.352-54.45C22.6 106.105 7.714 106.143 7.714 106.143s6.389-26.33 22.662-19.824S70.652 164.191 79.5 205.496z"/>
    <path fill="url(#wave-r)"
      d="M33.58 193.442l73.186 19.803s-28.277-25.18-14.063-84.667c7.749-32.432 47.356-46.208 47.356-46.208s-25.232-34.985-48.42-13.86C49.863 106.57 33.58 193.442 33.58 193.442z"/>
  </g>
</svg>